<?xml version="1.0" encoding="utf-8"?>
<!-- Generator: Adobe Illustrator 25.0.0, SVG Export Plug-In . SVG Version: 6.00 Build 0)  -->
<svg version="1.1" id="Template_logo.png" xmlns="http://www.w3.org/2000/svg" xmlns:xlink="http://www.w3.org/1999/xlink" x="0px"
	 y="0px" viewBox="0 0 595.28 841.89" style="enable-background:new 0 0 595.28 841.89;display:none;" xml:space="preserve">
<style type="text/css">
	.st0{fill:#4D4D4F;}
	.st1{fill:#ECF8FE;}
	.st2{fill:#B4DAA9;}
	.st3{fill:#FFFFFF;}
	.st4{fill:#F37E95;}
	.st5{fill:#636466;}
	.st6{fill:#77787B;}
	.st7{fill:#48484A;}
	.st8{fill:#FFFFFF;stroke:#717375;stroke-width:0.5;stroke-miterlimit:10;}
</style>
<path style="display:inline;fill:#4D4D4F;" d="M563.92,530.3H32.58c-2.13,0-3.86-1.73-3.86-3.86V61.18c0-2.13,1.73-3.86,3.86-3.86
	h531.33c2.13,0,3.86,1.73,3.86,3.86v465.27C567.77,528.57,566.05,530.3,563.92,530.3z"/>
<path style="display:inline;fill:#ECF8FE;" d="M513.52,464.67H82.98c-4.14,0-7.5-3.36-7.5-7.5V103.29c0-4.14,3.36-7.5,7.5-7.5
	h430.54c4.14,0,7.5,3.36,7.5,7.5v353.88C521.02,461.31,517.66,464.67,513.52,464.67z"/>
<path style="display:inline;fill:#B4DAA9;" d="M149.12,313.04c-6.22-98.13,41.02-182.52,104.51-202.17
	c64.43-19.94,130.23,34.49,124.68,41.49C188.85,391.5,188.85,391.5,188.85,391.5l-20.78-37.72l-46.45-1.51L149.12,313.04z"/>
<path style="display:inline;fill:#FFFFFF;" d="M220.28,242.89l20.27,23.7l55.05-67.26c3.49-2.45,3.43-8.42,0.38-11.97l-10.07-11.71
	c-3.19-3.72-8.2-3.61-11.29,0.23l-34.17,42.5l-14.6-17.2c-3.18-3.75-8.12-3.99-11.54-0.57l-8.02,8.05
	c-3.06,3.06-3.48,8.63-0.95,12.34L220.28,242.89z"/>
<path style="display:inline;fill:#F37E95;" d="M209.82,405.06c6.83,8.42,38.09,45.12,87.93,47.37
	c47.55,2.15,79.85-28.51,87.72-36.43c17.46,5.1,34.92,10.2,52.39,15.31c-6.75-13.61-13.5-27.21-20.25-40.82
	c6.4-17.03,12.8-39.71,15.07-67.07c6.61-79.72-26.72-140.28-38.2-159.34L275.77,319L209.82,405.06z"/>
<path style="display:inline;fill:#FFFFFF;" d="M311.08,316.44c19.71,25.46,19.71,25.46,19.71,25.46l-19.71,26.59l16.5,20.93
	l19.25-23.2l22,20.37l15.58-15.28l-20.63-28.85l20.63-22.63l-13.75-23.76l-22.92,22.63l-16.96-22.63L311.08,316.44z"/>
<path style="display:inline;fill:#FFFFFF;" d="M562.59,296.07"/>
<ellipse style="display:inline;fill:#FFFFFF;" cx="466.93" cy="497.63" rx="11.46" ry="16.83"/>
<ellipse style="display:inline;fill:#FFFFFF;" cx="509.44" cy="497.63" rx="11.57" ry="16.27"/>
<path style="display:inline;fill:#4D4D4F;" d="M174.79,579.33c23.84-49.03,23.84-49.03,23.84-49.03h204.13l20.17,55.07h103.29
	l69.06,104.1v39.23H0V695.5l64.78-107.87l108.79-0.75L174.79,579.33z"/>
<polygon style="display:inline;fill:#636466;" points="0,718.7 595.28,718.13 595.28,728.69 0,728.69 "/>
<path style="display:inline;fill:#77787B;" d="M576.29,818.46"/>
<path style="display:inline;fill:#636466;" d="M64.78,587.63"/>
<polyline style="display:inline;fill:#48484A;" points="526.21,585.37 535.2,598.92 58,598.92 64.78,587.63 "/>
<path style="display:inline;fill:#FFFFFF;stroke:#717375;stroke-width:0.5;stroke-miterlimit:10;" d="M102.52,596.49
	c-2.75,14.14-2.75,14.14-2.75,14.14H64.78l5.65-14.14H102.52z"/>
<path style="display:inline;fill:#FFFFFF;stroke:#717375;stroke-width:0.5;stroke-miterlimit:10;" d="M58,616.29
	c47.73,0.57,47.73,0.57,47.73,0.57l-3.21,16.41H52.1L58,616.29z"/>
<polygon style="display:inline;fill:#FFFFFF;stroke:#717375;stroke-width:0.5;stroke-miterlimit:10;" points="44.77,638.93 
	34.23,658.16 105.73,658.16 112.15,638.93 "/>
<polygon style="display:inline;fill:#FFFFFF;stroke:#717375;stroke-width:0.5;stroke-miterlimit:10;" points="28.72,664.95 
	14.06,692.11 54.39,692.11 64.78,664.95 "/>
<polygon style="display:inline;fill:#FFFFFF;stroke:#717375;stroke-width:0.5;stroke-miterlimit:10;" points="71.74,665.13 
	63.34,692.29 112.03,691.11 118.45,666.22 "/>
<polygon style="display:inline;fill:#FFFFFF;stroke:#717375;stroke-width:0.5;stroke-miterlimit:10;" points="123.61,664.95 
	116.73,692.11 164.82,690.99 170.78,663.83 "/>
<polygon style="display:inline;fill:#FFFFFF;stroke:#717375;stroke-width:0.5;stroke-miterlimit:10;" points="116.73,638.93 
	112.15,658.16 141.48,658.16 146.07,638.93 "/>
<rect x="112.15" y="618.56" style="display:inline;fill:#FFFFFF;stroke:#717375;stroke-width:0.5;stroke-miterlimit:10;" width="27.27" height="14.71"/>
<path style="display:inline;fill:#FFFFFF;" d="M41.79,625.91"/>
<path style="display:inline;fill:#FFFFFF;stroke:#717375;stroke-width:0.5;stroke-miterlimit:10;" d="M108.94,596.49
	c-4.13,13.01-4.13,13.01-4.13,13.01h28.42l3.21-13.01H108.94z"/>
<polygon style="display:inline;fill:#FFFFFF;stroke:#717375;stroke-width:0.5;stroke-miterlimit:10;" points="143.78,596.49 
	139.42,610.64 167.61,610.64 172.2,596.49 "/>
<polygon style="display:inline;fill:#FFFFFF;stroke:#717375;stroke-width:0.5;stroke-miterlimit:10;" points="178.15,596.49 
	174.03,609.51 201.99,610.64 201.99,596.49 "/>
<path style="display:inline;fill:#FFFFFF;stroke:#717375;stroke-width:0.5;stroke-miterlimit:10;" d="M209.82,598.92
	c-2.64,12.1-2.64,12.1-2.64,12.1h28.72v-12.1H209.82z"/>
<rect x="243.24" y="598.92" style="display:inline;fill:#FFFFFF;stroke:#717375;stroke-width:0.5;stroke-miterlimit:10;" width="25.06" height="12.1"/>
<rect x="276.25" y="596.49" style="display:inline;fill:#FFFFFF;stroke:#717375;stroke-width:0.5;stroke-miterlimit:10;" width="25.06" height="14.52"/>
<rect x="308.64" y="596.49" style="display:inline;fill:#FFFFFF;stroke:#717375;stroke-width:0.5;stroke-miterlimit:10;" width="28.11" height="14.52"/>
<polygon style="display:inline;fill:#FFFFFF;stroke:#717375;stroke-width:0.5;stroke-miterlimit:10;" points="491.91,666.36 
	501.77,692.67 582.44,692.67 568.92,666.36 "/>
<polygon style="display:inline;fill:#FFFFFF;stroke:#717375;stroke-width:0.5;stroke-miterlimit:10;" points="531.33,659.86 
	565.02,660.99 538.9,617.14 495.58,617.14 503.14,633.83 521.25,633.27 "/>
<polygon style="display:inline;fill:#FFFFFF;stroke:#717375;stroke-width:0.5;stroke-miterlimit:10;" points="530.3,611.49 
	480.68,611.49 470.14,593.95 521.71,593.95 "/>
<polygon style="display:inline;fill:#FFFFFF;stroke:#717375;stroke-width:0.5;stroke-miterlimit:10;" points="484.35,614.6 
	497.64,632.14 467.62,632.14 460.97,614.6 "/>
<polygon style="display:inline;fill:#FFFFFF;stroke:#717375;stroke-width:0.5;stroke-miterlimit:10;" points="486.64,639.07 
	495.58,659.58 521.48,659.58 512.31,639.07 "/>
<polygon style="display:inline;fill:#FFFFFF;stroke:#717375;stroke-width:0.5;stroke-miterlimit:10;" points="478.39,639.07 
	488.25,658.16 457.3,658.16 446.99,639.07 "/>
<polygon style="display:inline;fill:#FFFFFF;stroke:#717375;stroke-width:0.5;stroke-miterlimit:10;" points="482.97,669.48 
	491.91,692.67 450.89,692.67 443.55,666.36 482.97,666.36 "/>
<polygon style="display:inline;fill:#FFFFFF;stroke:#717375;stroke-width:0.5;stroke-miterlimit:10;" points="392.22,666.36 
	398.63,692.67 440.35,692.67 433.47,666.36 "/>
<polygon style="display:inline;fill:#FFFFFF;stroke:#717375;stroke-width:0.5;stroke-miterlimit:10;" points="384.88,666.36 
	388.55,692.67 344.54,692.67 344.54,666.36 "/>
<polygon style="display:inline;fill:#FFFFFF;stroke:#717375;stroke-width:0.5;stroke-miterlimit:10;" points="336.75,666.36 
	336.75,692.67 172.2,692.11 172.2,664.95 "/>
<rect x="301.3" y="638.93" style="display:inline;fill:#FFFFFF;stroke:#717375;stroke-width:0.5;stroke-miterlimit:10;" width="30.41" height="19.24"/>
<polygon style="display:inline;fill:#FFFFFF;stroke:#717375;stroke-width:0.5;stroke-miterlimit:10;" points="403.22,638.93 
	410.09,658.16 378.92,658.16 373.88,638.93 "/>
<polygon style="display:inline;fill:#FFFFFF;stroke:#717375;stroke-width:0.5;stroke-miterlimit:10;" points="414.22,639.07 
	416.28,658.16 446.99,658.16 443.55,638.93 "/>
<polygon style="display:inline;fill:#FFFFFF;stroke:#717375;stroke-width:0.5;stroke-miterlimit:10;" points="452.72,616.29 
	460.97,632.14 430.6,633.27 425.22,618.56 "/>
<polygon style="display:inline;fill:#FFFFFF;stroke:#717375;stroke-width:0.5;stroke-miterlimit:10;" points="416.28,618.56 
	421.55,632.14 392.22,632.14 392.22,618.56 "/>
<path style="display:inline;fill:#FFFFFF;stroke:#717375;stroke-width:0.5;stroke-miterlimit:10;" d="M405.05,598.92l5.04,12.57
	h26.13l-2.37-9.69c-0.76-3.1-3.16-5.14-5.77-4.91L405.05,598.92z"/>
<polygon style="display:inline;fill:#FFFFFF;stroke:#717375;stroke-width:0.5;stroke-miterlimit:10;" points="443.55,611.49 
	471.97,611.49 467.62,598.92 440.35,598.92 "/>
<polygon style="display:inline;fill:#FFFFFF;stroke:#717375;stroke-width:0.5;stroke-miterlimit:10;" points="398.86,596.49 
	402.3,611.01 376.17,611.49 373.88,596.49 "/>
<polygon style="display:inline;fill:#FFFFFF;stroke:#717375;stroke-width:0.5;stroke-miterlimit:10;" points="340.19,596.87 
	340.19,611.01 368.61,611.49 366.55,596.87 "/>
<polygon style="display:inline;fill:#FFFFFF;stroke:#717375;stroke-width:0.5;stroke-miterlimit:10;" points="340.19,638.93 
	340.19,660.99 373.88,660.99 368.61,639.07 "/>
<polygon style="display:inline;fill:#FFFFFF;stroke:#717375;stroke-width:0.5;stroke-miterlimit:10;" points="357.04,633.27 
	388.09,633.27 384.88,618.56 357.04,618.56 "/>
<rect x="323.59" y="618.56" style="display:inline;fill:#FFFFFF;stroke:#717375;stroke-width:0.5;stroke-miterlimit:10;" width="26" height="14.71"/>
<rect x="285.41" y="618.56" style="display:inline;fill:#FFFFFF;stroke:#717375;stroke-width:0.5;stroke-miterlimit:10;" width="31.09" height="14.71"/>
<polygon style="display:inline;fill:#FFFFFF;stroke:#717375;stroke-width:0.5;stroke-miterlimit:10;" points="280.83,618.56 
	280.83,633.27 249.66,633.27 249.66,616.29 "/>
<polygon style="display:inline;fill:#FFFFFF;stroke:#717375;stroke-width:0.5;stroke-miterlimit:10;" points="295.19,638.93 
	296.6,658.16 265.25,658.16 265.25,641.75 265.25,638.93 "/>
<polygon style="display:inline;fill:#FFFFFF;stroke:#717375;stroke-width:0.5;stroke-miterlimit:10;" points="255.77,638.93 
	255.77,658.16 227.2,660.99 227.2,639.07 "/>
<polygon style="display:inline;fill:#FFFFFF;stroke:#717375;stroke-width:0.5;stroke-miterlimit:10;" points="221.55,638.93 
	221.55,659.58 188.01,659.58 193.74,638.93 "/>
<polygon style="display:inline;fill:#FFFFFF;stroke:#717375;stroke-width:0.5;stroke-miterlimit:10;" points="188.01,638.36 
	184.57,658.22 149.85,657.45 154.55,638.36 "/>
<polygon style="display:inline;fill:#FFFFFF;stroke:#717375;stroke-width:0.5;stroke-miterlimit:10;" points="143.76,616.29 
	143.76,632.14 170.78,633.27 178.76,616.29 "/>
<polygon style="display:inline;fill:#FFFFFF;stroke:#717375;stroke-width:0.5;stroke-miterlimit:10;" points="185.03,616.29 
	180.91,633.27 209.82,633.27 214.44,614.6 "/>
<polygon style="display:inline;fill:#FFFFFF;stroke:#717375;stroke-width:0.5;stroke-miterlimit:10;" points="218.49,614.6 
	213.45,632.14 245.99,632.14 245.99,618.56 "/>
</svg>
